<svg xmlns="http://www.w3.org/2000/svg" viewBox="0 0 32 32">
  <defs>
    <linearGradient id="gradient" x1="0%" y1="0%" x2="100%" y2="100%">
      <stop offset="0%" style="stop-color:#00d4ff;stop-opacity:1" />
      <stop offset="50%" style="stop-color:#4B96DC;stop-opacity:1" />
      <stop offset="100%" style="stop-color:#c0c0c0;stop-opacity:1" />
    </linearGradient>
    
    <radialGradient id="glow" cx="50%" cy="50%" r="50%">
      <stop offset="0%" style="stop-color:#ffffff;stop-opacity:0.9" />
      <stop offset="40%" style="stop-color:#00d4ff;stop-opacity:0.6" />
      <stop offset="80%" style="stop-color:#4B96DC;stop-opacity:0.3" />
      <stop offset="100%" style="stop-color:#000000;stop-opacity:0" />
    </radialGradient>
    
    <filter id="shadow" x="-50%" y="-50%" width="200%" height="200%">
      <feGaussianBlur in="SourceAlpha" stdDeviation="1"/>
      <feOffset dx="1" dy="1" result="offset"/>
      <feFlood flood-color="#000000" flood-opacity="0.4"/>
      <feComposite in2="offset" operator="in"/>
      <feMerge> 
        <feMergeNode/>
        <feMergeNode in="SourceGraphic"/> 
      </feMerge>
    </filter>
  </defs>
  
  <rect width="32" height="32" rx="6" fill="#0a0a0a"/>
  
  <polygon points="16,3 25.86,8 25.86,18 16,23 6.14,18 6.14,8" 
           fill="none" 
           stroke="url(#gradient)" 
           stroke-width="1.5" 
           opacity="0.8"
           filter="url(#shadow)"/>
  
  <polygon points="16,7 22.93,10.5 22.93,17.5 16,21 9.07,17.5 9.07,10.5" 
           fill="none" 
           stroke="url(#gradient)" 
           stroke-width="1.2" 
           opacity="0.9"/>
  
  <circle cx="16" cy="14" r="5" fill="url(#glow)" opacity="0.7"/>
  
  <polygon points="16,10 19,14 16,18 13,14" 
           fill="url(#gradient)" 
           filter="url(#shadow)"/>
  
  <circle cx="16" cy="5" r="1.2" fill="#00d4ff" opacity="0.9"/>
  <circle cx="24" cy="9.5" r="1.2" fill="#4B96DC" opacity="0.9"/>
  <circle cx="24" cy="18.5" r="1.2" fill="#c0c0c0" opacity="0.9"/>
  <circle cx="16" cy="23" r="1.2" fill="#00d4ff" opacity="0.9"/>
  <circle cx="8" cy="18.5" r="1.2" fill="#4B96DC" opacity="0.9"/>
  <circle cx="8" cy="9.5" r="1.2" fill="#c0c0c0" opacity="0.9"/>
  
  <circle cx="16" cy="14" r="2" fill="#ffffff" opacity="0.3"/>
  <circle cx="16" cy="14" r="1" fill="#00d4ff"/>
</svg>